<?xml version="1.0" standalone="no"?>
<!DOCTYPE svg PUBLIC "-//W3C//DTD SVG 20010904//EN"
 "http://www.w3.org/TR/2001/REC-SVG-20010904/DTD/svg10.dtd">
<svg version="1.0" xmlns="http://www.w3.org/2000/svg"
 width="1080.000000pt" height="1080.000000pt" viewBox="0 0 1080.000000 1080.000000"
 preserveAspectRatio="xMidYMid meet">

<g transform="translate(0.000000,1080.000000) scale(0.100000,-0.100000)"
fill="#000000" stroke="none">
<path d="M8205 8661 c-108 -27 -222 -120 -273 -224 -40 -81 -60 -167 -70 -305
-8 -96 -12 -116 -31 -136 l-23 -24 -41 19 c-28 12 -65 19 -110 19 -59 0 -73 4
-104 28 -36 27 -37 27 -212 28 -158 1 -179 0 -203 -17 -14 -11 -31 -19 -38
-19 -25 0 -76 -35 -161 -111 -143 -128 -281 -305 -343 -438 -12 -27 -63 -107
-112 -179 l-89 -129 -80 -7 c-147 -11 -184 -33 -231 -133 -14 -28 -32 -57 -41
-65 -9 -7 -31 -45 -49 -84 l-33 -71 -48 -7 c-26 -3 -122 -13 -213 -21 -328
-29 -352 -36 -451 -124 -45 -40 -71 -54 -129 -70 -77 -22 -100 -34 -166 -87
-34 -27 -77 -43 -235 -88 -216 -62 -394 -106 -424 -106 -28 -1 -122 -41 -175
-75 -25 -16 -119 -58 -209 -92 -131 -49 -168 -60 -188 -52 -36 13 -110 11
-173 -6 -59 -16 -424 -24 -510 -11 -39 6 -79 -4 -319 -84 -210 -69 -286 -90
-328 -90 -47 0 -76 -10 -206 -71 -151 -70 -152 -71 -200 -60 -95 22 -176 7
-243 -44 -31 -23 -37 -24 -225 -27 -176 -2 -201 0 -274 21 -122 35 -236 39
-325 12 -102 -31 -173 -81 -206 -143 -47 -90 26 -247 146 -312 73 -40 142 -43
325 -16 170 25 252 23 333 -9 91 -36 135 -42 215 -30 79 12 231 67 288 104 34
22 104 39 269 66 46 8 201 13 402 15 354 2 433 11 529 60 26 13 48 21 50 20 2
-2 61 -14 130 -25 152 -25 313 -28 366 -6 22 9 49 13 69 9 45 -8 338 14 410
31 l59 15 48 -53 c27 -28 73 -82 102 -118 83 -100 77 -98 310 -86 233 12 375
28 440 48 59 19 220 27 213 11 -1 -4 -29 -59 -60 -123 -58 -117 -128 -308
-128 -348 0 -11 -15 -38 -33 -58 -68 -78 -80 -100 -68 -135 26 -74 17 -101
-108 -308 -74 -122 -123 -194 -132 -193 -8 1 -53 16 -101 33 -107 37 -212 47
-328 31 l-85 -12 -133 40 c-74 21 -136 41 -138 44 -3 3 -12 38 -20 79 -18 88
-66 193 -100 215 -29 19 -101 13 -171 -13 -42 -16 -44 -16 -66 4 -29 28 -57
13 -57 -30 0 -35 0 -35 -123 -119 -128 -87 -199 -119 -269 -119 -47 0 -59 4
-68 20 -14 26 -52 26 -75 0 -14 -15 -31 -20 -70 -20 -28 0 -56 5 -61 10 -17
17 -72 -8 -76 -33 -2 -14 -25 -34 -71 -60 -57 -33 -72 -38 -91 -29 -31 14 -56
-2 -56 -37 0 -16 -13 -44 -30 -66 -50 -63 -59 -135 -20 -170 41 -37 292 -37
574 0 106 14 113 14 235 -10 145 -29 278 -45 314 -38 13 3 71 -10 128 -27 82
-25 132 -49 232 -112 332 -205 449 -268 502 -268 16 0 47 4 67 9 30 7 51 4
103 -15 106 -39 215 -28 323 31 28 15 128 99 224 186 100 91 201 175 238 196
71 41 188 154 404 393 299 329 417 484 512 671 37 75 49 90 92 115 27 16 111
93 186 171 134 138 139 144 162 218 13 42 24 86 24 98 0 12 4 27 8 32 4 6 84
64 177 130 347 243 566 417 751 597 67 65 128 118 136 118 7 0 48 33 89 74 77
75 103 89 195 102 40 6 41 6 62 -39 12 -25 35 -61 50 -79 16 -18 33 -44 37
-57 4 -13 24 -42 45 -65 20 -23 98 -117 172 -211 160 -201 241 -281 328 -326
98 -50 179 -42 280 25 19 13 52 27 72 30 31 6 53 24 139 121 l103 114 41 -25
c34 -20 55 -24 118 -24 96 0 121 10 179 68 26 26 56 54 66 63 13 11 21 36 26
79 6 50 12 67 32 82 15 12 24 30 24 47 0 43 -30 120 -53 136 -17 12 -18 17 -7
30 17 20 7 76 -20 120 -20 32 -26 35 -70 35 -27 0 -59 -4 -72 -9 -13 -4 -35
-11 -50 -15 -24 -6 -28 -3 -28 17 0 12 -9 55 -20 95 -11 40 -18 78 -14 83 10
16 6 112 -6 144 -14 36 -65 91 -103 111 -34 18 -60 11 -86 -22 -19 -24 -19
-24 -65 -7 -41 15 -46 21 -46 48 0 66 -79 143 -168 165 -26 6 -75 12 -108 14
-34 2 -65 5 -70 8 -5 3 -28 9 -51 13 -53 8 -134 -8 -238 -48 -44 -17 -89 -30
-99 -29 -10 0 -32 -6 -47 -14 -28 -14 -29 -13 -35 13 -14 64 -15 65 -45 61
-22 -4 -35 2 -58 26 l-29 31 52 141 c28 77 59 149 69 159 40 39 67 112 67 179
0 53 4 69 24 93 42 51 45 63 35 153 -25 227 -105 376 -253 472 -102 66 -232
93 -331 69z"/>
<path d="M1725 2528 c-3 -7 -4 -269 -3 -583 l3 -570 283 -3 282 -2 0 95 0 95
-185 0 -185 0 -2 488 -3 487 -93 3 c-68 2 -94 -1 -97 -10z"/>
<path d="M2674 2529 c-10 -17 -252 -1143 -247 -1151 2 -5 44 -8 93 -8 106 0
100 -6 125 133 l17 97 132 0 133 0 17 -102 c10 -56 20 -108 23 -115 4 -9 32
-13 99 -13 88 0 94 1 94 20 0 25 -237 1128 -245 1141 -9 13 -232 12 -241 -2z
m169 -517 c24 -128 41 -235 38 -237 -5 -6 -181 -7 -181 -1 0 7 80 440 87 471
4 17 8 23 10 15 2 -8 23 -120 46 -248z"/>
<path d="M3896 2532 c-7 -11 -246 -1122 -246 -1144 0 -16 9 -18 94 -18 67 0
95 4 99 13 3 7 13 59 23 115 l17 102 133 0 132 0 17 -97 c25 -139 19 -133 125
-133 49 0 91 3 94 8 5 8 -236 1132 -248 1150 -8 13 -231 18 -240 4z m164 -488
c22 -120 42 -231 46 -246 l6 -28 -90 0 c-49 0 -91 2 -94 5 -2 3 7 71 22 153
15 81 35 191 45 245 10 54 19 96 21 94 3 -2 22 -102 44 -223z"/>
<path d="M4497 2533 c-4 -3 -7 -46 -7 -95 l0 -88 95 0 95 0 2 -487 3 -488 95
0 95 0 3 488 2 487 95 0 95 0 0 95 0 95 -283 0 c-156 0 -287 -3 -290 -7z"/>
<path d="M5426 2532 c-7 -11 -246 -1122 -246 -1144 0 -16 9 -18 94 -18 67 0
95 4 99 13 3 7 13 59 23 115 l17 102 133 0 132 0 17 -97 c25 -139 19 -133 125
-133 49 0 91 3 94 8 5 8 -236 1132 -248 1150 -8 13 -231 18 -240 4z m164 -488
c22 -120 42 -231 46 -246 l6 -28 -90 0 c-49 0 -91 2 -94 5 -2 3 7 71 22 153
15 81 35 191 45 245 10 54 19 96 21 94 3 -2 22 -102 44 -223z"/>
<path d="M6436 2525 c-3 -9 -6 -223 -6 -476 l0 -459 -25 -16 c-34 -22 -132
-15 -151 11 -9 12 -14 46 -14 91 0 56 -3 73 -16 78 -24 9 -147 7 -163 -3 -10
-7 -12 -36 -10 -133 4 -115 6 -128 31 -165 45 -68 78 -78 264 -78 159 0 161 0
203 28 28 19 49 43 62 72 18 41 19 69 17 552 l-3 508 -91 3 c-77 2 -93 0 -98
-13z"/>
<path d="M7014 2529 c-10 -17 -252 -1143 -247 -1151 2 -5 44 -8 93 -8 106 0
100 -6 125 133 l17 97 132 0 133 0 17 -102 c10 -56 20 -108 23 -115 4 -9 32
-13 99 -13 88 0 94 1 94 20 0 25 -237 1128 -245 1141 -9 13 -232 12 -241 -2z
m169 -517 c24 -128 41 -235 38 -237 -5 -6 -181 -7 -181 -1 0 7 80 440 87 471
4 17 8 23 10 15 2 -8 23 -120 46 -248z"/>
<path d="M7640 1956 l0 -586 201 0 c228 0 277 8 323 55 54 54 56 73 56 537 l0
424 -25 50 c-18 36 -37 57 -67 75 -41 23 -51 24 -265 27 l-223 3 0 -585z m372
376 c20 -20 24 -720 4 -747 -12 -17 -26 -20 -98 -20 l-83 0 -3 380 c-1 209 0
386 3 394 7 17 158 12 177 -7z"/>
<path d="M8595 2518 c-58 -245 -242 -1135 -236 -1141 4 -4 48 -7 97 -5 l89 3
12 55 c7 30 17 81 23 113 l12 58 130 -3 131 -3 18 -93 c28 -145 16 -132 125
-132 83 0 94 2 94 18 0 9 -56 271 -123 582 l-122 565 -122 3 c-120 3 -123 2
-128 -20z m174 -494 c23 -122 41 -229 41 -238 0 -14 -14 -16 -90 -16 -59 0
-90 4 -90 11 0 17 80 452 87 469 7 20 7 24 52 -226z"/>
</g>
</svg>
